<?xml version="1.0" standalone="no"?><!DOCTYPE svg PUBLIC "-//W3C//DTD SVG 1.1//EN" "http://www.w3.org/Graphics/SVG/1.1/DTD/svg11.dtd"><svg t="1662050092451" class="icon" viewBox="0 0 1024 1024" version="1.1" xmlns="http://www.w3.org/2000/svg" p-id="2306" width="32" height="32" xmlns:xlink="http://www.w3.org/1999/xlink"><path d="M922.026667 561.493333a136.533333 136.533333 0 0 1 0-98.986666l7.253333-19.626667a139.52 139.52 0 0 0-72.96-177.066667L837.12 256A141.226667 141.226667 0 0 1 768 186.88l-8.533333-19.2a139.52 139.52 0 0 0-177.066667-72.96l-19.626667 7.253333a136.533333 136.533333 0 0 1-98.986666 0l-19.626667-7.253333a139.52 139.52 0 0 0-178.346667 72.96L256 186.88A141.226667 141.226667 0 0 1 186.88 256l-19.2 8.533333a139.52 139.52 0 0 0-72.96 177.066667l7.253333 19.626667a136.533333 136.533333 0 0 1 0 98.986666l-7.253333 19.626667a139.52 139.52 0 0 0 72.96 177.066667l19.2 8.533333A141.226667 141.226667 0 0 1 256 837.12l8.533333 19.2a139.52 139.52 0 0 0 177.066667 72.96l19.626667-7.253333a136.533333 136.533333 0 0 1 98.986666 0l19.626667 7.253333a139.52 139.52 0 0 0 177.066667-72.96l8.533333-19.2A141.226667 141.226667 0 0 1 837.12 768l19.2-8.533333a139.52 139.52 0 0 0 72.96-177.066667z m-224.426667-146.346666l-239.786667 239.786666a20.48 20.48 0 0 1-29.866666 0L326.4 554.666667a21.333333 21.333333 0 0 1 0-30.293334l22.613333-22.613333a20.48 20.48 0 0 1 29.866667 0l64 63.573333 202.24-202.24a21.333333 21.333333 0 0 1 29.866667 0l22.613333 22.613334a21.333333 21.333333 0 0 1 0 29.44z" p-id="2307" fill="currentColor"></path></svg>